<svg xmlns="http://www.w3.org/2000/svg" xmlns:xlink="http://www.w3.org/1999/xlink" version="1.1" x="0px" y="0px" viewBox="0 0 90 112.5" enable-background="new 0 0 90 90" xml:space="preserve"><path d="M78.6,24.6h-4.5V23c0-0.3-0.2-0.5-0.5-0.5h-4.5v-2c0-0.3-0.2-0.5-0.5-0.5H21.4c-0.3,0-0.5,0.2-0.5,0.5v2h-4.5  c-0.3,0-0.5,0.2-0.5,0.5v1.6h-4.6c-0.3,0-0.5,0.2-0.5,0.5v28.3c0,0.3,0.2,0.5,0.5,0.5h4.6v1.6c0,0.3,0.2,0.5,0.5,0.5h4.5v2  c0,0.3,0.2,0.5,0.5,0.5h47.2c0.3,0,0.5-0.2,0.5-0.5v-2h4.5c0.3,0,0.5-0.2,0.5-0.5v-1.6h4.5c0.3,0,0.5-0.2,0.5-0.5V25.1  C79.1,24.9,78.9,24.6,78.6,24.6z M15.9,52.9h-4V25.6h4V52.9z M16.9,55.1V23.5h4v31.6H16.9z M68.1,57.6H21.9v-2V23v-2h46.2v2v32.6  V57.6z M73.1,55.1h-4V23.5h4v1.6v28.3V55.1z M78.1,52.9h-4V25.6h4V52.9z M26.3,64.9c-1.4,0-2.5,1.1-2.5,2.5s1.1,2.5,2.5,2.5  c1.4,0,2.5-1.1,2.5-2.5S27.7,64.9,26.3,64.9z M26.3,69c-0.8,0-1.5-0.7-1.5-1.5s0.7-1.5,1.5-1.5c0.8,0,1.5,0.7,1.5,1.5  S27.1,69,26.3,69z M35.6,64.9c-1.4,0-2.5,1.1-2.5,2.5s1.1,2.5,2.5,2.5c1.4,0,2.5-1.1,2.5-2.5S37,64.9,35.6,64.9z M35.6,69  c-0.8,0-1.5-0.7-1.5-1.5s0.7-1.5,1.5-1.5c0.8,0,1.5,0.7,1.5,1.5S36.5,69,35.6,69z M47.5,67.5c0,1.4-1.1,2.5-2.5,2.5  c-1.4,0-2.5-1.1-2.5-2.5s1.1-2.5,2.5-2.5C46.4,64.9,47.5,66.1,47.5,67.5z M54.4,64.9c-1.4,0-2.5,1.1-2.5,2.5S53,70,54.4,70  s2.5-1.1,2.5-2.5S55.8,64.9,54.4,64.9z M54.4,69c-0.8,0-1.5-0.7-1.5-1.5s0.7-1.5,1.5-1.5c0.8,0,1.5,0.7,1.5,1.5S55.2,69,54.4,69z   M63.8,64.9c-1.4,0-2.5,1.1-2.5,2.5s1.1,2.5,2.5,2.5s2.5-1.1,2.5-2.5S65.2,64.9,63.8,64.9z M63.8,69c-0.8,0-1.5-0.7-1.5-1.5  s0.7-1.5,1.5-1.5c0.8,0,1.5,0.7,1.5,1.5S64.6,69,63.8,69z"/><text x="0" y="105" fill="#000000" font-size="5px" font-weight="bold" font-family="'Helvetica Neue', Helvetica, Arial-Unicode, Arial, Sans-serif">Created by Tommy Lau</text><text x="0" y="110" fill="#000000" font-size="5px" font-weight="bold" font-family="'Helvetica Neue', Helvetica, Arial-Unicode, Arial, Sans-serif">from the Noun Project</text></svg>